<svg id="Group_2580" data-name="Group 2580" xmlns="http://www.w3.org/2000/svg" width="193.056" height="193.056" viewBox="0 0 193.056 193.056">
  <ellipse id="Ellipse_783" data-name="Ellipse 783" cx="96.528" cy="96.528" rx="96.528" ry="96.528" transform="translate(0 0)" fill="#e1f5ff"/>
  <g id="Group_1917" data-name="Group 1917" transform="translate(33.332 33.146)">
    <g id="Group_1901" data-name="Group 1901" transform="translate(18.13)">
      <path id="Path_8498" data-name="Path 8498" d="M454.462,320.726a7.808,7.808,0,1,1-7.808-7.808A7.81,7.81,0,0,1,454.462,320.726Z" transform="translate(-433.687 -312.918)" fill="#595f75"/>
      <path id="Path_8499" data-name="Path 8499" d="M450.605,316.095h0a13.09,13.09,0,0,0-13.091,13.091v19.082H463.7V329.186A13.09,13.09,0,0,0,450.605,316.095Z" transform="translate(-437.514 -303.79)" fill="#595f75"/>
    </g>
    <g id="Group_1902" data-name="Group 1902" transform="translate(83.119 18.556)">
      <path id="Path_8500" data-name="Path 8500" d="M471.243,325.513a7.808,7.808,0,1,1-7.808-7.8A7.808,7.808,0,0,1,471.243,325.513Z" transform="translate(-450.464 -317.709)" fill="#595f75"/>
      <path id="Path_8501" data-name="Path 8501" d="M467.385,320.885h0a13.092,13.092,0,0,0-13.091,13.091v19.086H480.48V333.976A13.093,13.093,0,0,0,467.385,320.885Z" transform="translate(-454.294 -308.584)" fill="#595f75"/>
    </g>
    <g id="Group_1903" data-name="Group 1903" transform="translate(62.1)">
      <path id="Path_8502" data-name="Path 8502" d="M465.815,320.726a7.808,7.808,0,1,1-7.808-7.808A7.81,7.81,0,0,1,465.815,320.726Z" transform="translate(-445.04 -312.918)" fill="#595f75"/>
      <path id="Path_8503" data-name="Path 8503" d="M461.958,316.095h0a13.09,13.09,0,0,0-13.091,13.091v19.082h26.182V329.186A13.09,13.09,0,0,0,461.958,316.095Z" transform="translate(-448.867 -303.79)" fill="#595f75"/>
    </g>
    <g id="Group_1904" data-name="Group 1904" transform="translate(56.938 22.239)">
      <path id="Path_8504" data-name="Path 8504" d="M464.479,326.468a7.806,7.806,0,1,1-7.8-7.808A7.807,7.807,0,0,1,464.479,326.468Z" transform="translate(-443.704 -318.66)" fill="#2a2d42"/>
      <path id="Path_8505" data-name="Path 8505" d="M460.625,321.837h0a13.092,13.092,0,0,0-13.091,13.091V354.01h26.182V334.928A13.09,13.09,0,0,0,460.625,321.837Z" transform="translate(-447.534 -309.532)" fill="#2a2d42"/>
    </g>
    <g id="Group_1905" data-name="Group 1905" transform="translate(73.131 40.795)">
      <path id="Path_8506" data-name="Path 8506" d="M468.66,331.255a7.806,7.806,0,1,1-7.8-7.8A7.8,7.8,0,0,1,468.66,331.255Z" transform="translate(-447.885 -323.451)" fill="#44485e"/>
      <path id="Path_8507" data-name="Path 8507" d="M464.806,326.627h0a13.092,13.092,0,0,0-13.091,13.091V358.8H477.9V339.718A13.093,13.093,0,0,0,464.806,326.627Z" transform="translate(-451.715 -314.326)" fill="#44485e"/>
    </g>
    <g id="Group_1906" data-name="Group 1906" transform="translate(35.845 7.409)">
      <path id="Path_8508" data-name="Path 8508" d="M459.036,322.635a7.808,7.808,0,1,1-7.808-7.8A7.808,7.808,0,0,1,459.036,322.635Z" transform="translate(-438.261 -314.831)" fill="#44485e"/>
      <path id="Path_8509" data-name="Path 8509" d="M455.179,318.007h0A13.092,13.092,0,0,0,442.088,331.1v19.086H468.27V331.1A13.094,13.094,0,0,0,455.179,318.007Z" transform="translate(-442.088 -305.706)" fill="#44485e"/>
    </g>
    <g id="Group_1907" data-name="Group 1907" transform="translate(13.092 24.234)">
      <path id="Path_8510" data-name="Path 8510" d="M453.158,326.979a7.806,7.806,0,1,1-7.808-7.8A7.8,7.8,0,0,1,453.158,326.979Z" transform="translate(-432.384 -319.175)" fill="#2a2d42"/>
      <path id="Rectangle_1509" data-name="Rectangle 1509" d="M3.38,0H22.8a3.38,3.38,0,0,1,3.38,3.38v28.8a0,0,0,0,1,0,0H0a0,0,0,0,1,0,0V3.38A3.38,3.38,0,0,1,3.38,0Z" transform="translate(0 12.301)" fill="#2a2d42"/>
    </g>
    <g id="Group_1908" data-name="Group 1908" transform="translate(35.917 34.168)">
      <path id="Path_8511" data-name="Path 8511" d="M459.055,329.548a7.808,7.808,0,1,1-7.808-7.808A7.81,7.81,0,0,1,459.055,329.548Z" transform="translate(-438.278 -321.74)" fill="#595f75"/>
      <path id="Rectangle_1510" data-name="Rectangle 1510" d="M3.38,0H22.8a3.38,3.38,0,0,1,3.38,3.38v28.8a0,0,0,0,1,0,0H0a0,0,0,0,1,0,0V3.38A3.38,3.38,0,0,1,3.38,0Z" transform="translate(0 12.303)" fill="#595f75"/>
    </g>
    <g id="Group_1909" data-name="Group 1909" transform="translate(52.363 52.209)">
      <path id="Path_8512" data-name="Path 8512" d="M463.3,334.206a7.806,7.806,0,1,1-7.8-7.808A7.8,7.8,0,0,1,463.3,334.206Z" transform="translate(-442.523 -326.398)" fill="#2a2d42"/>
      <path id="Path_8513" data-name="Path 8513" d="M459.444,329.574h0a13.092,13.092,0,0,0-13.091,13.091v19.086h26.182V342.665A13.09,13.09,0,0,0,459.444,329.574Z" transform="translate(-446.353 -317.273)" fill="#2a2d42"/>
    </g>
    <g id="Group_1910" data-name="Group 1910" transform="translate(0 40.795)">
      <path id="Path_8514" data-name="Path 8514" d="M449.781,331.255a7.808,7.808,0,1,1-7.808-7.8A7.805,7.805,0,0,1,449.781,331.255Z" transform="translate(-429.006 -323.451)" fill="#2a2d42"/>
      <path id="Path_8515" data-name="Path 8515" d="M445.924,326.627h0a13.089,13.089,0,0,0-13.091,13.091V358.8h26.182V339.718A13.089,13.089,0,0,0,445.924,326.627Z" transform="translate(-432.833 -314.326)" fill="#2a2d42"/>
    </g>
    <g id="Group_1911" data-name="Group 1911" transform="translate(99.315 40.318)">
      <path id="Path_8516" data-name="Path 8516" d="M475.424,331.136a7.808,7.808,0,1,1-7.808-7.808A7.807,7.807,0,0,1,475.424,331.136Z" transform="translate(-454.647 -323.328)" fill="#2a2d42"/>
      <path id="Rectangle_1511" data-name="Rectangle 1511" d="M3.38,0H22.8a3.38,3.38,0,0,1,3.38,3.38v28.8a0,0,0,0,1,0,0H0a0,0,0,0,1,0,0V3.38A3.38,3.38,0,0,1,3.38,0Z" transform="translate(0 12.304)" fill="#2a2d42"/>
    </g>
    <g id="Group_1912" data-name="Group 1912" transform="translate(80.815 63.034)">
      <path id="Path_8517" data-name="Path 8517" d="M470.644,337a7.806,7.806,0,1,1-7.8-7.808A7.8,7.8,0,0,1,470.644,337Z" transform="translate(-449.869 -329.193)" fill="#595f75"/>
      <path id="Path_8518" data-name="Path 8518" d="M466.79,332.369h0A13.092,13.092,0,0,0,453.7,345.46v19.086h26.185V345.46A13.093,13.093,0,0,0,466.79,332.369Z" transform="translate(-453.699 -320.068)" fill="#595f75"/>
    </g>
    <g id="Group_1913" data-name="Group 1913" transform="translate(18.254 55.935)">
      <ellipse id="Ellipse_784" data-name="Ellipse 784" cx="7.807" cy="7.807" rx="7.807" ry="7.807" transform="translate(5.159)" fill="#44485e"/>
      <path id="Path_8519" data-name="Path 8519" d="M450.637,330.537h0a13.089,13.089,0,0,0-13.091,13.091V362.71h26.182V343.628A13.092,13.092,0,0,0,450.637,330.537Z" transform="translate(-437.546 -318.233)" fill="#44485e"/>
    </g>
    <g id="Group_1914" data-name="Group 1914" transform="translate(35.917 71.551)">
      <path id="Path_8520" data-name="Path 8520" d="M459.055,339.2a7.808,7.808,0,1,1-7.808-7.808A7.807,7.807,0,0,1,459.055,339.2Z" transform="translate(-438.278 -331.392)" fill="#595f75"/>
      <path id="Rectangle_1512" data-name="Rectangle 1512" d="M3.38,0H22.8a3.38,3.38,0,0,1,3.38,3.38v28.8a0,0,0,0,1,0,0H0a0,0,0,0,1,0,0V3.38A3.38,3.38,0,0,1,3.38,0Z" transform="translate(0 12.302)" fill="#595f75"/>
    </g>
    <g id="Group_1915" data-name="Group 1915" transform="translate(65.203 72.751)">
      <path id="Path_8521" data-name="Path 8521" d="M466.616,339.506a7.808,7.808,0,1,1-7.808-7.8A7.808,7.808,0,0,1,466.616,339.506Z" transform="translate(-445.841 -331.702)" fill="#44485e"/>
      <path id="Path_8522" data-name="Path 8522" d="M462.759,334.878h0a13.089,13.089,0,0,0-13.091,13.091v19.086H475.85V347.969A13.09,13.09,0,0,0,462.759,334.878Z" transform="translate(-449.668 -322.577)" fill="#44485e"/>
    </g>
    <g id="Group_1916" data-name="Group 1916" transform="translate(49.009 91.423)">
      <path id="Path_8523" data-name="Path 8523" d="M462.435,344.331a7.808,7.808,0,1,1-7.808-7.808A7.81,7.81,0,0,1,462.435,344.331Z" transform="translate(-441.66 -336.523)" fill="#2a2d42"/>
      <path id="Path_8524" data-name="Path 8524" d="M458.578,339.7h0a13.092,13.092,0,0,0-13.091,13.091v19.086h26.182V352.79A13.094,13.094,0,0,0,458.578,339.7Z" transform="translate(-445.487 -327.398)" fill="#2a2d42"/>
    </g>
  </g>
</svg>
