<svg id="Group_2581" data-name="Group 2581" xmlns="http://www.w3.org/2000/svg" xmlns:xlink="http://www.w3.org/1999/xlink" width="221.288" height="221.288" viewBox="0 0 221.288 221.288">
  <defs>
    <clipPath id="clip-path">
      <ellipse id="Ellipse_787" data-name="Ellipse 787" cx="96.528" cy="96.528" rx="96.528" ry="96.528" transform="matrix(0.159, -0.987, 0.987, 0.159, 0, 190.602)" fill="#ce5f4c"/>
    </clipPath>
  </defs>
  <ellipse id="Ellipse_785" data-name="Ellipse 785" cx="96.528" cy="96.528" rx="96.528" ry="96.528" transform="matrix(0.159, -0.987, 0.987, 0.159, 0, 190.602)" fill="#fff"/>
  <g id="Group_1927" data-name="Group 1927" transform="translate(0 0)">
    <ellipse id="Ellipse_786" data-name="Ellipse 786" cx="96.528" cy="96.528" rx="96.528" ry="96.528" transform="matrix(0.159, -0.987, 0.987, 0.159, 0, 190.602)" fill="#ce5f4c"/>
    <g id="Group_1926" data-name="Group 1926" transform="translate(0 0)" clip-path="url(#clip-path)">
      <g id="Group_1925" data-name="Group 1925" transform="translate(37.9 22.961)">
        <path id="Path_8525" data-name="Path 8525" d="M211.535,430.813s5.256,27.34,8.831,45,8.2,21.24,14.3,23.974,18.715,10.515,26.077,8.621,20.608-9.043,27.127-17.452,8.412-31.968,10.515-45.849,2.734-22.08,2.734-22.08-16.193-.422-21.871-12.2a18.305,18.305,0,0,1-12.828,4.415,18.076,18.076,0,0,1-12.827-5.887,21.953,21.953,0,0,1-15.566,9.253c-10.934,1.472-12.405.209-12.405.209S223.1,431.235,211.535,430.813Z" transform="translate(-182.812 -358.948)" fill="#e7b694"/>
        <path id="Path_8526" data-name="Path 8526" d="M225.167,416.058c-2.026,2.169-7.8,2.676-8.04,2.7a12.693,12.693,0,0,0-.484,2.421c-.411,4.369,1.4,8.114,4.047,8.362s5.12-3.095,5.531-7.463A10.721,10.721,0,0,0,225.167,416.058Z" transform="translate(-168.306 -339.716)" fill="#2a2d42"/>
        <g id="Group_1919" data-name="Group 1919" transform="translate(44.657 71.403)">
          <path id="Path_8527" data-name="Path 8527" d="M217.1,422.685a18.652,18.652,0,0,0,7.882-1.135c2.339-.883,5.167-2.231,6.321-4.593a1.49,1.49,0,0,0-.523-1.987,1.467,1.467,0,0,0-1.987.523,4.957,4.957,0,0,1-2.053,2,15.486,15.486,0,0,1-2.947,1.41,16.587,16.587,0,0,1-6.693.879,1.452,1.452,0,0,0,0,2.9Z" transform="translate(-215.649 -414.783)" fill="#2a2d42"/>
        </g>
        <path id="Path_8528" data-name="Path 8528" d="M228.308,416.058c2.026,2.169,7.8,2.676,8.037,2.7a12.4,12.4,0,0,1,.488,2.421c.411,4.369-1.406,8.114-4.047,8.362s-5.12-3.095-5.531-7.463A10.72,10.72,0,0,1,228.308,416.058Z" transform="translate(-137.81 -339.716)" fill="#2a2d42"/>
        <g id="Group_1920" data-name="Group 1920" transform="translate(86.869 71.402)">
          <path id="Path_8529" data-name="Path 8529" d="M240.928,419.781a16.586,16.586,0,0,1-6.693-.879,15.486,15.486,0,0,1-2.947-1.41,4.957,4.957,0,0,1-2.053-2,1.47,1.47,0,0,0-1.991-.523,1.486,1.486,0,0,0-.519,1.987c1.154,2.363,3.982,3.71,6.321,4.593a18.655,18.655,0,0,0,7.882,1.135,1.487,1.487,0,0,0,1.452-1.452,1.468,1.468,0,0,0-1.452-1.452Z" transform="translate(-226.548 -414.782)" fill="#2a2d42"/>
        </g>
        <g id="Group_1921" data-name="Group 1921" transform="translate(72.744 81.559)">
          <path id="Path_8530" data-name="Path 8530" d="M224.353,433a1.453,1.453,0,0,1-1.452-1.453V418.857a1.452,1.452,0,1,1,2.9,0v12.692A1.453,1.453,0,0,1,224.353,433Z" transform="translate(-222.901 -417.405)" fill="#d4664f"/>
        </g>
        <path id="Path_8531" data-name="Path 8531" d="M240.232,439.854c-5.84,1.5-14.981-3.079-21.557-6.406v9.772c17.665,14.826,35.961,0,35.961,0v-9.992A56.753,56.753,0,0,1,240.232,439.854Z" transform="translate(-162.298 -290.389)" fill="#e7b694"/>
        <g id="Group_1922" data-name="Group 1922" transform="translate(24.726 148.242)">
          <path id="Path_8532" data-name="Path 8532" d="M288.525,452.46s.631-13.881-1.5-16.321-8.912-1.2-8.912-1.2v4.276s-18.3,14.826-35.961,0v-4.276c-9.462.771-8.1,8.06-8.1,8.06v9.675c-9.992,1.894-23.552,16.825-23.552,16.825l102.3,1.263C305.11,461.082,288.525,452.46,288.525,452.46Z" transform="translate(-210.503 -434.622)" fill="#77beea"/>
        </g>
        <path id="Path_8533" data-name="Path 8533" d="M347.244,457.7a16.269,16.269,0,0,0,4.733-16.4c-2.839-10.093-9.148-13.249-9.148-13.249.945-5.361-1.263-15.771-11.681-18.3s-19.547,3.784-19.547,3.784-1.263-15.14-20.822-17.034-28.691,14.512-28.691,14.512c-2.506-1.894-11.371-9.466-21.422-4.415s-11.821,17.347-11.821,17.347-11.882-3.153-16.611,6,1.259,19.241,1.259,19.241c-7.886,2.839-13.563,17.665-5.36,30.179s20.713,10.829,20.713,10.829,3.238.422,8.474,1.077c-2.417-12.343-4.477-23.052-4.477-23.052,11.565.422,14.09-11.987,14.09-11.987s1.472,1.262,12.405-.209a21.953,21.953,0,0,0,15.566-9.253,18.075,18.075,0,0,0,12.827,5.887,18.3,18.3,0,0,0,12.828-4.415c5.678,11.774,21.871,12.2,21.871,12.2s-.631,8.2-2.734,22.08c-.705,4.648-1.387,10.376-2.227,16.259a27.019,27.019,0,0,0,4.961-.38c11.46-2.525,14.09-15.771,14.09-15.771s14.195.627,16.093-9.93S347.244,457.7,347.244,457.7Z" transform="translate(-204.119 -396.347)" fill="#2a2d42"/>
        <path id="Path_8534" data-name="Path 8534" d="M220.866,420.93v0s-4.21-4.919-8.416-1.766-5.047,16.193,2.943,24.815c5.515,5.953,8.827,3.691,10.349,1.716C224.131,437.622,222.333,428.466,220.866,420.93Z" transform="translate(-189.195 -333.836)" fill="#e7b694"/>
        <path id="Path_8535" data-name="Path 8535" d="M245.2,419.16c-4.206-3.153-8.416,1.766-8.416,1.766l-.078.306c-1.061,7.3-2.111,16.859-3.761,25.535,1.793,1.453,4.822,2.053,9.311-2.792C250.244,435.353,249.4,422.316,245.2,419.16Z" transform="translate(-121.306 -333.836)" fill="#e7b694"/>
        <path id="Path_8536" data-name="Path 8536" d="M278.244,433.638c-5.887-4.59-21.027-11.6-26.077-12.44s-12.618,2.1-20.4,6.941c-4.334,2.7-12.057,8-18.052,12.165.132.647.263,1.3.387,1.925,3.575,17.665,8.2,21.24,14.3,23.974s18.715,10.515,26.077,8.621,20.608-9.043,27.127-17.452c2.765-3.571,4.694-9.876,6.166-17C284.568,438.235,280.912,435.722,278.244,433.638Z" transform="translate(-176.549 -325.359)" fill="#fff"/>
        <g id="Group_1923" data-name="Group 1923" transform="translate(23.72 88.841)">
          <path id="Path_8537" data-name="Path 8537" d="M218.721,436.667a.97.97,0,0,1-.964-.9c-.507-6.8-2.142-14.253-3.772-14.536a.783.783,0,0,0-.7.182c-.972.883-1.2,4.109-1.061,6.115a.967.967,0,0,1-.9,1.034.952.952,0,0,1-1.034-.894c-.043-.593-.356-5.821,1.692-7.688a2.731,2.731,0,0,1,2.332-.655c3.916.666,5.109,12.646,5.38,16.3a.968.968,0,0,1-.895,1.038Z" transform="translate(-210.243 -419.285)" fill="#d4664f"/>
        </g>
        <g id="Group_1924" data-name="Group 1924" transform="translate(114.609 88.836)">
          <path id="Path_8538" data-name="Path 8538" d="M234.681,436.67l-.074,0a.971.971,0,0,1-.895-1.038c.275-3.652,1.464-15.632,5.38-16.3a2.684,2.684,0,0,1,2.331.655c2.053,1.867,1.735,7.1,1.7,7.688a.969.969,0,0,1-1.933-.139c.143-2.006-.093-5.229-1.065-6.112a.785.785,0,0,0-.7-.186c-1.631.283-3.265,7.738-3.772,14.535A.965.965,0,0,1,234.681,436.67Z" transform="translate(-233.71 -419.284)" fill="#d4664f"/>
        </g>
        <path id="Path_8539" data-name="Path 8539" d="M225.962,423.861c-3.9,2.607-8.42,5.721-12.247,8.381.132.647.263,1.3.387,1.925,3.575,17.665,8.2,21.24,14.3,23.974,4.4,1.975,12.2,6.569,18.974,8.261C233.471,453.273,228,434.241,225.962,423.861Z" transform="translate(-176.549 -317.298)" fill="#e1f5ff"/>
        <path id="Path_8540" data-name="Path 8540" d="M237.064,469.591s1.573-12.258,1.836-21.406a14.137,14.137,0,0,1,3.4-9.1c-.047-.039-.1-.066-.147-.108V434.7c-9.462.771-8.1,8.06-8.1,8.06v9.675c-9.992,1.894-23.552,16.825-23.552,16.825l26.561.329Z" transform="translate(-185.777 -286.148)" fill="#65add1"/>
      </g>
    </g>
  </g>
</svg>
