<svg id="Group_2582" data-name="Group 2582" xmlns="http://www.w3.org/2000/svg" xmlns:xlink="http://www.w3.org/1999/xlink" width="221.288" height="221.288" viewBox="0 0 221.288 221.288">
  <defs>
    <clipPath id="clip-path">
      <ellipse id="Ellipse_789" data-name="Ellipse 789" cx="96.528" cy="96.528" rx="96.528" ry="96.528" transform="matrix(0.159, -0.987, 0.987, 0.159, 0, 190.602)" fill="none"/>
    </clipPath>
  </defs>
  <path id="Path_9036" data-name="Path 9036" d="M96.528,0A96.528,96.528,0,1,1,0,96.528,96.528,96.528,0,0,1,96.528,0Z" transform="matrix(0.159, -0.987, 0.987, 0.159, 0, 190.602)" fill="#595f75"/>
  <g id="Group_1936" data-name="Group 1936" transform="translate(0 0)">
    <g id="Group_1935" data-name="Group 1935" transform="translate(0 0)" clip-path="url(#clip-path)">
      <g id="Group_1934" data-name="Group 1934" transform="translate(37.516 16.154)">
        <path id="Path_8541" data-name="Path 8541" d="M326.4,427.684s-8.61,6.077-15.705,20.519-23.463,38-23.463,38,7.9,11.906,29.234,14.439,30.454-9.543,40.841-6.418,24.028-5.488,23.668-14.353c0,0-23.92-25.333-30.256-33.947S340.166,422.448,326.4,427.684Z" transform="translate(-254.572 -302.64)" fill="#fff"/>
        <path id="Path_8542" data-name="Path 8542" d="M411.162,450.569A14.841,14.841,0,0,0,415.48,435.6c-2.591-9.214-8.346-12.092-8.346-12.092.864-4.892-1.154-14.392-10.659-16.693s-17.839,3.455-17.839,3.455-1.154-13.819-19-15.546-26.178,13.242-26.178,13.242c-2.289-1.727-10.376-8.637-19.547-4.032s-10.786,15.833-10.786,15.833-10.845-2.878-15.163,5.469,1.154,17.56,1.154,17.56c-7.2,2.591-12.378,16.12-4.9,27.537s18.9,9.884,18.9,9.884,2.955.383,7.731.98c-2.208-11.263-4.086-21.035-4.086-21.035,10.554.383,12.859-10.937,12.859-10.937s1.344,1.15,11.321-.194a20.029,20.029,0,0,0,14.2-8.443,16.5,16.5,0,0,0,11.7,5.372,16.685,16.685,0,0,0,11.7-4.028c5.182,10.748,19.958,11.131,19.958,11.131s-.573,7.483-2.494,20.148c-.639,4.241-1.266,9.469-2.029,14.838a24.647,24.647,0,0,0,4.524-.349c10.461-2.3,12.858-14.392,12.858-14.392s12.955.577,14.687-9.059S411.162,450.569,411.162,450.569Z" transform="translate(-273.746 -394.589)" fill="#2a2d42"/>
        <path id="Path_8543" data-name="Path 8543" d="M287.233,425.95s4.8,24.977,8.068,41.112,7.494,19.4,13.064,21.9,17.1,9.605,23.823,7.878,18.827-8.261,24.784-15.945,7.684-29.2,9.6-41.883,2.5-20.171,2.5-20.171-14.795-.383-19.981-11.143a16.719,16.719,0,0,1-11.72,4.036,16.522,16.522,0,0,1-11.716-5.38,20.055,20.055,0,0,1-14.218,8.451c-9.989,1.348-11.336.194-11.336.194S297.8,426.337,287.233,425.95Z" transform="translate(-254.572 -360.783)" fill="#e7b694"/>
        <path id="Path_8544" data-name="Path 8544" d="M295.76,416.92l0,0s-3.846-4.493-7.688-1.611-4.609,14.791,2.692,22.669c5.039,5.438,8.064,3.37,9.454,1.565C298.738,432.173,297.1,423.807,295.76,416.92Z" transform="translate(-260.403 -337.841)" fill="#e7b694"/>
        <path id="Path_8545" data-name="Path 8545" d="M321.909,430.46c0,5.736-6.011,10.388-13.424,10.388s-13.428-4.652-13.428-10.388,6.011-10.388,13.428-10.388S321.909,424.724,321.909,430.46Z" transform="translate(-232.093 -321.376)" fill="#b7503e"/>
        <path id="Path_8546" data-name="Path 8546" d="M297.435,436.347a15.82,15.82,0,0,1,22.1,0,8.8,8.8,0,0,0,2.378-5.887c0-5.736-6.011-10.388-13.424-10.388s-13.428,4.652-13.428,10.388A8.823,8.823,0,0,0,297.435,436.347Z" transform="translate(-232.093 -321.376)" fill="#d4664f"/>
        <path id="Path_8547" data-name="Path 8547" d="M317.983,415.306c-3.842-2.882-7.688,1.611-7.688,1.611l-.07.279c-.968,6.666-1.929,15.4-3.435,23.327,1.634,1.328,4.4,1.878,8.505-2.548C322.6,430.1,321.825,418.187,317.983,415.306Z" transform="translate(-198.383 -337.841)" fill="#e7b694"/>
        <path id="Path_8548" data-name="Path 8548" d="M286.627,450.627s9.88-15.705,13.428-20.012,7.091-3.04,7.6,0c0,0,6.313-7.626,9.752-8.486,3.548-.887,4.6,1.816,4.264,4.686,0,0,3.211-4.055,6.588-3.04s1.689,7.262,1.689,7.262a3.986,3.986,0,0,1,4.938,1.6c2.913,4.222-5.953,17.142-11.019,24.067s-17.394,16.383-17.394,16.383S291.441,465.488,286.627,450.627Z" transform="translate(-256.313 -315.958)" fill="#f4cdb3"/>
        <path id="Path_8549" data-name="Path 8549" d="M331.129,450.5c-1.325,1.069-2.169,1.72-2.169,1.72s-15.031-7.6-19.845-22.464c0,0-2.111-1.859-6.5,1.352S278.8,449.684,278.8,449.684s9.292,28.711,34.621,36.987c0,0,9.965-15.368,14.861-22.463a16.843,16.843,0,0,0,2.847-13.707Z" transform="translate(-278.8 -295.088)" fill="#77beea"/>
        <path id="Path_8550" data-name="Path 8550" d="M300.812,423.212a20.019,20.019,0,0,1-2.839,5.109,19.677,19.677,0,0,1-4.086,4.179,19.892,19.892,0,0,1,2.839-5.109A20.165,20.165,0,0,1,300.812,423.212Z" transform="translate(-235.454 -312.354)" fill="#d4664f"/>
        <path id="Path_8551" data-name="Path 8551" d="M302.7,424.3a18.183,18.183,0,0,1-2.673,4.857,17.742,17.742,0,0,1-3.916,3.923,19.765,19.765,0,0,1,6.588-8.78Z" transform="translate(-229.065 -309.223)" fill="#d4664f"/>
        <path id="Path_8552" data-name="Path 8552" d="M346.644,450.627s-9.88-15.705-13.424-20.012-7.1-3.04-7.6,0c0,0-6.309-7.626-9.752-8.486-3.548-.887-4.6,1.816-4.264,4.686,0,0-3.207-4.055-6.584-3.04s-1.689,7.262-1.689,7.262a3.991,3.991,0,0,0-4.942,1.6c-2.912,4.222,5.953,17.142,11.019,24.067s17.4,16.383,17.4,16.383S341.83,465.488,346.644,450.627Z" transform="translate(-224.178 -315.958)" fill="#f4cdb3"/>
        <path id="Path_8553" data-name="Path 8553" d="M305.053,450.5c1.325,1.069,2.173,1.72,2.173,1.72s15.027-7.6,19.842-22.464c0,0,2.111-1.859,6.5,1.352s23.811,18.575,23.811,18.575-9.288,28.711-34.621,36.987c0,0-9.961-15.368-14.861-22.463a16.842,16.842,0,0,1-2.847-13.707Z" transform="translate(-204.601 -295.088)" fill="#77beea"/>
        <path id="Path_8554" data-name="Path 8554" d="M301.372,423.212A21.962,21.962,0,0,1,308.3,432.5a19.868,19.868,0,0,1-4.086-4.179A20.256,20.256,0,0,1,301.372,423.212Z" transform="translate(-213.95 -312.354)" fill="#d4664f"/>
        <path id="Path_8555" data-name="Path 8555" d="M299.236,424.3a18.139,18.139,0,0,1,3.912,3.923,17.87,17.87,0,0,1,2.672,4.857,17.826,17.826,0,0,1-3.916-3.923A18.076,18.076,0,0,1,299.236,424.3Z" transform="translate(-220.086 -309.223)" fill="#d4664f"/>
        <path id="Path_8556" data-name="Path 8556" d="M303.328,431.322a126.582,126.582,0,0,1-1.507,15.632c-.376,2.595-.91,5.163-1.491,7.746-.651,2.622-1.371,4.984-1.817,7.5a29.944,29.944,0,0,0-.759,7.335,5.289,5.289,0,0,0,.74,2.889c.4.523,1.17.678,2.227.461,1.967-.391,3.408-2.591,4.237-4.9a30.3,30.3,0,0,0,1.607-7.529,24.346,24.346,0,0,1-.143,7.944,12.107,12.107,0,0,1-1.487,3.92,6.44,6.44,0,0,1-3.532,2.9,5.514,5.514,0,0,1-2.479.291,4.1,4.1,0,0,1-2.5-1.305,7.738,7.738,0,0,1-1.607-4.427,30.773,30.773,0,0,1,.647-8.18c.523-2.6,1.324-5.229,2.022-7.634.724-2.463,1.313-4.981,1.968-7.487Q301.285,438.915,303.328,431.322Z" transform="translate(-232.986 -289.054)" fill="#e1f5ff"/>
        <path id="Path_8557" data-name="Path 8557" d="M300.086,432.434a22.9,22.9,0,0,1,3.5,7.088,39.849,39.849,0,0,1,1.515,7.688c.654,4.95,1.727,9.88,2.359,15.116a30.462,30.462,0,0,1-3.525-7.037,38.1,38.1,0,0,1-1.917-7.665c-.275-2.688-.453-5.027-.794-7.576C300.9,437.546,300.516,435.044,300.086,432.434Z" transform="translate(-217.644 -285.859)" fill="#e1f5ff"/>
        <g id="Group_1929" data-name="Group 1929" transform="translate(86.135 76.601)">
          <path id="Path_8558" data-name="Path 8558" d="M314.2,414.409a17.135,17.135,0,0,0-7.212,1.042c-2.142.81-4.729,2.037-5.786,4.2a1.363,1.363,0,0,0,.477,1.816,1.345,1.345,0,0,0,1.82-.476,4.546,4.546,0,0,1,1.878-1.828,14.044,14.044,0,0,1,2.7-1.29,15.084,15.084,0,0,1,6.123-.805,1.344,1.344,0,0,0,1.328-1.332,1.359,1.359,0,0,0-1.328-1.329Z" transform="translate(-301.04 -414.367)" fill="#2a2d42"/>
        </g>
        <g id="Group_1930" data-name="Group 1930" transform="translate(47.511 76.601)">
          <path id="Path_8559" data-name="Path 8559" d="M292.4,417.07a15.084,15.084,0,0,1,6.123.805,14.043,14.043,0,0,1,2.7,1.29,4.546,4.546,0,0,1,1.879,1.828,1.336,1.336,0,0,0,1.816.476,1.357,1.357,0,0,0,.48-1.816c-1.057-2.165-3.644-3.393-5.786-4.2a17.135,17.135,0,0,0-7.212-1.042,1.364,1.364,0,0,0-1.328,1.329,1.342,1.342,0,0,0,1.328,1.332Z" transform="translate(-291.067 -414.367)" fill="#2a2d42"/>
        </g>
        <g id="Group_1931" data-name="Group 1931" transform="translate(73.208 76.5)">
          <path id="Path_8560" data-name="Path 8560" d="M299.034,428.613a1.332,1.332,0,0,1-1.332-1.329V415.67a1.33,1.33,0,0,1,2.661,0v11.615A1.331,1.331,0,0,1,299.034,428.613Z" transform="translate(-297.702 -414.341)" fill="#d4664f"/>
        </g>
        <g id="Group_1932" data-name="Group 1932" transform="translate(28.355 80.242)">
          <path id="Path_8561" data-name="Path 8561" d="M293.878,431.209a.887.887,0,0,1-.883-.821c-.461-6.216-1.96-13.04-3.451-13.3a.7.7,0,0,0-.643.167c-.891.805-1.1,3.757-.972,5.593a.885.885,0,0,1-.821.945.87.87,0,0,1-.949-.817c-.039-.542-.325-5.326,1.549-7.034a2.5,2.5,0,0,1,2.134-.6c3.583.612,4.675,11.573,4.923,14.915a.879.879,0,0,1-.817.945Z" transform="translate(-286.121 -415.307)" fill="#d4664f"/>
        </g>
        <g id="Group_1933" data-name="Group 1933" transform="translate(111.514 80.238)">
          <path id="Path_8562" data-name="Path 8562" d="M308.482,431.212l-.066,0a.882.882,0,0,1-.821-.945c.252-3.343,1.34-14.3,4.923-14.915a2.452,2.452,0,0,1,2.13.6c1.882,1.708,1.592,6.492,1.553,7.034a.885.885,0,0,1-1.766-.128c.128-1.836-.085-4.783-.976-5.589a.709.709,0,0,0-.647-.171c-1.487.256-2.986,7.08-3.447,13.3A.884.884,0,0,1,308.482,431.212Z" transform="translate(-307.592 -415.306)" fill="#d4664f"/>
        </g>
      </g>
    </g>
  </g>
</svg>
