<svg id="Group_2583" data-name="Group 2583" xmlns="http://www.w3.org/2000/svg" width="193.056" height="193.056" viewBox="0 0 193.056 193.056">
  <ellipse id="Ellipse_782" data-name="Ellipse 782" cx="96.528" cy="96.528" rx="96.528" ry="96.528" transform="translate(0 0)" fill="#d4664f"/>
  <g id="Group_1899" data-name="Group 1899" transform="translate(29.282 64.158)">
    <path id="Path_8495" data-name="Path 8495" d="M357.536,362.266s18.145-41.341,60.477-38.963c36.252,2.037,49.052,19.466,49.052,19.466l21.844-21.844v64.858l-21.844-18.815S415.326,420.726,357.536,362.266Z" transform="translate(-357.536 -320.925)" fill="#77beea"/>
    <path id="Path_8496" data-name="Path 8496" d="M386.63,323.409c-20.062,11.305-29.094,31.72-29.094,31.72,10.616,10.74,21.023,17.665,30.949,21.859C391.909,356.458,388.993,335.291,386.63,323.409Z" transform="translate(-357.536 -313.788)" fill="#e1f5ff"/>
    <g id="Group_1898" data-name="Group 1898" transform="translate(16.262 21.197)">
      <path id="Path_8497" data-name="Path 8497" d="M366.217,335.682c5.972,0,5.984-9.284,0-9.284s-5.98,9.284,0,9.284Z" transform="translate(-361.735 -326.398)" fill="#2b2c3e"/>
    </g>
  </g>
</svg>
