<svg id="Group_2584" data-name="Group 2584" xmlns="http://www.w3.org/2000/svg" width="193.056" height="193.056" viewBox="0 0 193.056 193.056">
  <ellipse id="Ellipse_816" data-name="Ellipse 816" cx="96.528" cy="96.528" rx="96.528" ry="96.528" transform="translate(0 0)" fill="#77beea"/>
  <ellipse id="Ellipse_778" data-name="Ellipse 778" cx="44.964" cy="44.964" rx="44.964" ry="44.964" transform="translate(51.6 54.072)" fill="#d2644e"/>
  <g id="Group_1793" data-name="Group 1793" transform="translate(20.411 24.52)">
    <path id="Path_8320" data-name="Path 8320" d="M200.058,352.523a4.475,4.475,0,0,0-1.976-2.571,38.494,38.494,0,0,1-3.974-2.632c-.918-.734-1.811-1.5-2.661-2.311a4.476,4.476,0,0,0-3.042-1.261,4.387,4.387,0,0,0-3.045,1.261,4.329,4.329,0,0,0-1.26,3.042,4.426,4.426,0,0,0,1.26,3.042c.85.813,1.745,1.581,2.661,2.326A69.021,69.021,0,0,1,176.8,367.786q1.8,1.228,3.468,2.621A73.142,73.142,0,0,0,191.492,356q1.1.73,2.245,1.387a4.484,4.484,0,0,0,3.316.434,4.4,4.4,0,0,0,2.571-1.979A4.338,4.338,0,0,0,200.058,352.523Z" transform="translate(-75.34 -330.437)" fill="#d2644e"/>
    <path id="Path_8321" data-name="Path 8321" d="M163.194,347.855c1.208.026,2.411,0,3.611-.055q1.757,10.82,4.245,21.5,2.088-.458,4.247-.718-2.447-10.477-4.2-21.1c.974-.105,1.945-.224,2.918-.361a4.3,4.3,0,0,0,2.571-1.979,4.3,4.3,0,0,0-1.545-5.887l-1.026-.434a4.317,4.317,0,0,0-1.834-.061,59.628,59.628,0,0,1-8.984.487,4.415,4.415,0,0,0-3.042,1.26,4.3,4.3,0,0,0,3.042,7.347Z" transform="translate(-104.566 -338.691)" fill="#d2644e"/>
    <path id="Path_8322" data-name="Path 8322" d="M170.342,368.277q-7.745-4.54-15.087-9.718a.6.6,0,0,0-.058-.032l.8-1.089a4.334,4.334,0,0,0,.434-3.316,4.3,4.3,0,0,0-5.292-3.008l-1.029.434a4.343,4.343,0,0,0-1.545,1.545q-2.834,3.868-5.674,7.739a4.332,4.332,0,0,0-.434,3.316,4.4,4.4,0,0,0,1.979,2.571,4.338,4.338,0,0,0,3.316.434l1.026-.434a4.322,4.322,0,0,0,1.545-1.545l2.376-3.239a3,3,0,0,0,.387.339q7.307,5.175,15.042,9.692Q169.149,370.068,170.342,368.277Z" transform="translate(-131.612 -318.689)" fill="#d2644e"/>
    <path id="Path_8323" data-name="Path 8323" d="M170.468,377.108c-.3-1.384-.534-2.795-.705-4.224q-11.124,1.887-22.347,3.14l-.547-5.029a4.677,4.677,0,0,0-1.261-3.045,4.3,4.3,0,0,0-6.087,0,4.172,4.172,0,0,0-1.261,3.045q.628,5.743,1.255,11.492a4.662,4.662,0,0,0,1.261,3.042,4.3,4.3,0,0,0,6.084,0,4.17,4.17,0,0,0,1.261-3.042l-.242-2.216Q159.215,379,170.468,377.108Z" transform="translate(-138.245 -293.012)" fill="#d2644e"/>
    <path id="Path_8324" data-name="Path 8324" d="M171.667,401.405a38.148,38.148,0,0,1-3.753-1.066,116.1,116.1,0,0,0,6.934-16.374q-2.013-.821-3.924-1.824a108.579,108.579,0,0,1-6.992,16.555,38.674,38.674,0,0,1-5.342-3.266,4.321,4.321,0,0,0-3.316-.434,4.3,4.3,0,0,0-3.005,5.292,4.963,4.963,0,0,0,1.976,2.571,41.065,41.065,0,0,0,15.132,6.845,4.305,4.305,0,0,0,2.29-8.3Z" transform="translate(-115.632 -267.796)" fill="#d2644e"/>
    <path id="Path_8325" data-name="Path 8325" d="M199.954,390.187c-1.2-1.866-3.882-2.874-5.887-1.542a30.692,30.692,0,0,0-4.666,3.9,113.341,113.341,0,0,0-9.882-11.734q-1.765,1.291-3.658,2.411A106.1,106.1,0,0,1,186.407,395.7a37.972,37.972,0,0,1-3.563,3.416c-.392.284-.787.571-1.2.824a4.3,4.3,0,0,0,4.345,7.432,32.072,32.072,0,0,0,6.6-5.679,53.421,53.421,0,0,1,5.211-5.174c.205-.147.405-.3.618-.44a4.57,4.57,0,0,0,1.976-2.574A4.4,4.4,0,0,0,199.954,390.187Z" transform="translate(-76.871 -269.972)" fill="#d2644e"/>
    <path id="Path_8326" data-name="Path 8326" d="M210.947,368.085a4.372,4.372,0,0,0-2.571-1.976c-2.09-.476-4.884.632-5.295,3.005-.421,2.439-.721,4.895-.937,7.358l-.021,0a119.943,119.943,0,0,1-17.526-.634q-.343,2.14-.882,4.211a119.778,119.778,0,0,0,18.174.731c-.063,1.884-.082,3.771,0,5.658a4.3,4.3,0,1,0,8.605,0,76.493,76.493,0,0,1,.068-7.96q.122-1.95.345-3.89c.037-.31.074-.621.113-.931v0l.016-.09c.111-.721.221-1.442.345-2.161A4.655,4.655,0,0,0,210.947,368.085Z" transform="translate(-64.058 -294.133)" fill="#d2644e"/>
  </g>
  <g id="Group_1794" data-name="Group 1794" transform="translate(51.599 54.071)">
    <path id="Path_8327" data-name="Path 8327" d="M166.752,404.607a44.976,44.976,0,0,1,58.756-42.8,44.963,44.963,0,1,0-44.237,75.882A44.841,44.841,0,0,1,166.752,404.607Z" transform="translate(-150.097 -349.92)" fill="#ba5645"/>
    <path id="Path_8328" data-name="Path 8328" d="M182.516,356.019c.587,2.116-2.742,4.884-7.437,6.182s-8.971.642-9.558-1.474,2.745-4.882,7.437-6.182S181.932,353.906,182.516,356.019Z" transform="translate(-125.04 -343.461)" fill="#ba5645"/>
    <path id="Path_8329" data-name="Path 8329" d="M169.869,359.324c1.224,1.382-.271,4.7-3.337,7.413s-6.545,3.792-7.766,2.411.274-4.7,3.339-7.41S168.648,357.942,169.869,359.324Z" transform="translate(-136.647 -335.558)" fill="#ba5645"/>
    <path id="Path_8330" data-name="Path 8330" d="M157.464,371.557c1.732-.632,4.276,1.971,5.682,5.816s1.142,7.476-.589,8.108-4.276-1.968-5.682-5.816S155.733,372.191,157.464,371.557Z" transform="translate(-140.512 -314.772)" fill="#ba5645"/>
    <path id="Path_8331" data-name="Path 8331" d="M172.806,360.245c.295,1.066-1.384,2.463-3.753,3.121s-4.529.321-4.826-.745,1.387-2.466,3.755-3.121S172.511,359.179,172.806,360.245Z" transform="translate(-127.098 -334.837)" fill="#ba5645"/>
    <path id="Path_8332" data-name="Path 8332" d="M160.277,377.055c1.024-.424,2.613,1.074,3.555,3.345s.874,4.455-.15,4.879-2.613-1.074-3.555-3.345S159.254,377.479,160.277,377.055Z" transform="translate(-134.814 -305.763)" fill="#ba5645"/>
    <path id="Path_8333" data-name="Path 8333" d="M177.835,358.293c.3,1.068-1.384,2.463-3.753,3.121s-4.529.321-4.824-.745,1.384-2.463,3.753-3.121S177.54,357.227,177.835,358.293Z" transform="translate(-118.888 -338.022)" fill="#ba5645"/>
  </g>
  <g id="Group_1796" data-name="Group 1796" transform="translate(67.298 89.165)">
    <path id="Path_8334" data-name="Path 8334" d="M175.277,363.257q-8.566.241-17.137.089c-2.768-.047-2.771,4.258,0,4.305,1.558.026,3.116.018,4.671.026a25.7,25.7,0,0,0-.395,3.729,5.487,5.487,0,0,0,1.208,4.126,3.955,3.955,0,0,0,4.626.595,4.624,4.624,0,0,0,2.376-3.366,7.918,7.918,0,0,0,.068-2.284c-.095-.761-.242-1.513-.355-2.271-.008-.063-.016-.124-.021-.184a3.467,3.467,0,0,0-.053-.379c1.668-.024,3.339-.037,5.01-.084C178.04,367.483,178.051,363.18,175.277,363.257Z" transform="translate(-156.063 -363.256)" fill="#2a2d42"/>
    <path id="Path_8335" data-name="Path 8335" d="M187.922,363.257q-8.566.241-17.134.089c-2.771-.047-2.771,4.258,0,4.305,1.558.026,3.113.018,4.671.026a25.712,25.712,0,0,0-.4,3.729,5.51,5.51,0,0,0,1.208,4.126,3.96,3.96,0,0,0,4.629.595,4.631,4.631,0,0,0,2.376-3.366,7.916,7.916,0,0,0,.066-2.284c-.092-.761-.24-1.513-.355-2.271-.005-.063-.013-.124-.018-.184-.013-.132-.032-.255-.055-.379,1.671-.024,3.342-.037,5.011-.084C190.688,367.483,190.7,363.18,187.922,363.257Z" transform="translate(-135.429 -363.256)" fill="#2a2d42"/>
    <g id="Group_1795" data-name="Group 1795" transform="translate(11.468 20.988)">
      <path id="Path_8336" data-name="Path 8336" d="M162.5,375.534h27.726c2.768,0,2.774-4.3,0-4.3H162.5c-2.768,0-2.774,4.3,0,4.3Z" transform="translate(-160.42 -371.231)" fill="#2a2d42"/>
    </g>
  </g>
  <g id="Group_1797" data-name="Group 1797" transform="translate(131.734 84.55)">
    <path id="Path_8337" data-name="Path 8337" d="M180.65,364.241a42.965,42.965,0,0,1,1.6,5.739q.146.718.266,1.44c.037.221.074.445.108.666.021.15.042.3.063.445-.021-.163-.021-.166,0-.013.118,1.008.216,2.013.271,3.026a2.153,2.153,0,0,0,4.305,0A44.67,44.67,0,0,0,184.8,363.1a2.151,2.151,0,1,0-4.147,1.145Z" transform="translate(-180.548 -361.502)" fill="#f7f1dc"/>
  </g>
  <g id="Group_1798" data-name="Group 1798" transform="translate(132.981 105.787)">
    <path id="Path_8338" data-name="Path 8338" d="M183.1,373.875c2.768,0,2.774-4.3,0-4.3s-2.774,4.3,0,4.3Z" transform="translate(-181.022 -369.572)" fill="#f7f1dc"/>
  </g>
</svg>
