<svg id="Group_2585" data-name="Group 2585" xmlns="http://www.w3.org/2000/svg" width="252.239" height="252.239" viewBox="0 0 252.239 252.239">
  <ellipse id="Ellipse_776" data-name="Ellipse 776" cx="96.528" cy="96.528" rx="96.528" ry="96.528" transform="matrix(0.924, -0.383, 0.383, 0.924, 0, 73.879)" fill="#e6b56f"/>
  <g id="Group_1770" data-name="Group 1770" transform="translate(79.754 74.768)">
    <g id="Group_1765" data-name="Group 1765" transform="translate(0 2.943)">
      <path id="Path_8267" data-name="Path 8267" d="M472.426,466.608a18.779,18.779,0,0,1-2.7-.2c-36.484-7.44-34.443-58.533-34.416-59.048l.046-1.018H445.8v2.142h-8.377c-.078,7.134.833,49.323,32.673,55.815,4.826.716,9.6-.794,14.121-4.477,11.933-9.714,20.194-33.451,21.515-51.337H498.5v-2.142h9.512l-.07,1.135c-1.054,18.207-9.257,43.324-22.375,54.006C481.381,464.892,476.969,466.608,472.426,466.608Z" transform="translate(-435.279 -406.343)" fill="#2a2d42"/>
    </g>
    <path id="Path_8268" data-name="Path 8268" d="M445.625,409.468a3.883,3.883,0,1,1-3.885-3.885A3.883,3.883,0,0,1,445.625,409.468Z" transform="translate(-427.863 -405.583)" fill="#2a2d42"/>
    <path id="Path_8269" data-name="Path 8269" d="M457.49,409.468a3.883,3.883,0,1,1-3.885-3.885A3.884,3.884,0,0,1,457.49,409.468Z" transform="translate(-393.777 -405.583)" fill="#2a2d42"/>
    <g id="Group_1766" data-name="Group 1766" transform="translate(23.099 56.406)">
      <path id="Path_8270" data-name="Path 8270" d="M442.437,424.668a17.956,17.956,0,0,0,11.154,3.695,44.339,44.339,0,0,0,7.618-1.03,14.445,14.445,0,0,0,5.6-2.665,2.489,2.489,0,0,0,.864-3.3,2.422,2.422,0,0,0-3.3-.864,14.2,14.2,0,0,1-2.382,1.518c-.085.042-.693.29-.271.128-.178.066-.36.132-.542.19a12.784,12.784,0,0,1-1.251.341,35.211,35.211,0,0,1-6.336.86,13.609,13.609,0,0,1-8.722-3.036,2.422,2.422,0,0,0-3.3.864,2.475,2.475,0,0,0,.864,3.3Z" transform="translate(-441.243 -420.147)" fill="#77beea"/>
    </g>
    <g id="Group_1767" data-name="Group 1767" transform="translate(32.887 59.724)">
      <path id="Path_8271" data-name="Path 8271" d="M448.592,431.955v-8.536a2.411,2.411,0,1,0-4.822,0v8.536a2.411,2.411,0,0,0,4.822,0Z" transform="translate(-443.77 -421.004)" fill="#77beea"/>
    </g>
    <g id="Group_1768" data-name="Group 1768" transform="translate(85.704 18.341)">
      <path id="Path_8272" data-name="Path 8272" d="M462.229,421.27v-8.54a2.411,2.411,0,0,0-4.822,0v8.54a2.411,2.411,0,0,0,4.822,0Z" transform="translate(-457.407 -410.318)" fill="#2a2d42"/>
    </g>
    <g id="Group_1769" data-name="Group 1769" transform="translate(34.227 30.655)">
      <path id="Path_8273" data-name="Path 8273" d="M471.6,511.13a27.515,27.515,0,0,1-27.479-27.483V455.927h2.142v27.719a25.338,25.338,0,1,0,50.675,0V413.5h2.142v70.149A27.515,27.515,0,0,1,471.6,511.13Z" transform="translate(-444.116 -413.498)" fill="#2a2d42"/>
    </g>
    <path id="Path_8274" data-name="Path 8274" d="M474.649,415.528a9.541,9.541,0,1,1-9.543-9.539A9.542,9.542,0,0,1,474.649,415.528Z" transform="translate(-376.993 -404.417)" fill="#a3a3a3"/>
    <path id="Path_8275" data-name="Path 8275" d="M468.159,412.767a5.815,5.815,0,1,1-5.817-5.817A5.818,5.818,0,0,1,468.159,412.767Z" transform="translate(-374.229 -401.656)" fill="#2a2d42"/>
  </g>
</svg>
