<svg id="Group_2587" data-name="Group 2587" xmlns="http://www.w3.org/2000/svg" width="191.807" height="191.807" viewBox="0 0 191.807 191.807">
  <g id="Group_2036" data-name="Group 2036" transform="translate(0 0)">
    <path id="Path_9038" data-name="Path 9038" d="M95.9,0A95.9,95.9,0,1,1,0,95.9,95.9,95.9,0,0,1,95.9,0Z" transform="translate(0 0)" fill="#dd515d"/>
    <g id="Group_2035" data-name="Group 2035" transform="translate(57.433 59.106)">
      <g id="Group_2024" data-name="Group 2024">
        <g id="Group_2022" data-name="Group 2022">
          <g id="Group_2020" data-name="Group 2020">
            <path id="Path_8639" data-name="Path 8639" d="M550.334,94.14a2.053,2.053,0,0,0-2.05,2.05v.731a2.053,2.053,0,0,0,2.05,2.05h12a2.053,2.053,0,0,0,2.049-2.05V96.19a2.053,2.053,0,0,0-2.049-2.05Z" transform="translate(-548.284 -94.14)" fill="#eee"/>
          </g>
          <g id="Group_2021" data-name="Group 2021" transform="translate(2.431 4.109)">
            <path id="Path_8640" data-name="Path 8640" d="M550.442,97.787v44.488a5.616,5.616,0,1,0,11.232,0V97.787Z" transform="translate(-550.442 -97.787)" fill="#eee"/>
          </g>
        </g>
        <g id="Group_2023" data-name="Group 2023" transform="translate(3.462 16.394)">
          <path id="Path_8641" data-name="Path 8641" d="M551.357,108.691v32.168a4.585,4.585,0,1,0,9.171,0V108.691Z" transform="translate(-551.357 -108.691)" fill="#757575"/>
        </g>
      </g>
      <g id="Group_2029" data-name="Group 2029" transform="translate(30.553)">
        <g id="Group_2027" data-name="Group 2027">
          <g id="Group_2025" data-name="Group 2025">
            <path id="Path_8642" data-name="Path 8642" d="M577.453,94.14a2.054,2.054,0,0,0-2.05,2.05v.731a2.054,2.054,0,0,0,2.05,2.05h11.994a2.054,2.054,0,0,0,2.051-2.05V96.19a2.054,2.054,0,0,0-2.051-2.05Z" transform="translate(-575.403 -94.14)" fill="#eee"/>
          </g>
          <g id="Group_2026" data-name="Group 2026" transform="translate(2.431 4.109)">
            <path id="Path_8643" data-name="Path 8643" d="M577.561,97.787v44.488a5.616,5.616,0,0,0,11.233,0V97.787Z" transform="translate(-577.561 -97.787)" fill="#eee"/>
          </g>
        </g>
        <g id="Group_2028" data-name="Group 2028" transform="translate(3.462 16.394)">
          <path id="Path_8644" data-name="Path 8644" d="M578.476,108.691v32.168a4.585,4.585,0,0,0,9.171,0V108.691Z" transform="translate(-578.476 -108.691)" fill="#bf360c"/>
        </g>
      </g>
      <g id="Group_2034" data-name="Group 2034" transform="translate(61.106)">
        <g id="Group_2032" data-name="Group 2032">
          <g id="Group_2030" data-name="Group 2030">
            <path id="Path_8645" data-name="Path 8645" d="M604.572,94.14a2.053,2.053,0,0,0-2.05,2.05v.731a2.053,2.053,0,0,0,2.05,2.05h11.994a2.053,2.053,0,0,0,2.051-2.05V96.19a2.053,2.053,0,0,0-2.051-2.05Z" transform="translate(-602.522 -94.14)" fill="#eee"/>
          </g>
          <g id="Group_2031" data-name="Group 2031" transform="translate(2.431 4.109)">
            <path id="Path_8646" data-name="Path 8646" d="M604.68,97.787v44.488a5.616,5.616,0,1,0,11.232,0V97.787Z" transform="translate(-604.68 -97.787)" fill="#eee"/>
          </g>
        </g>
        <g id="Group_2033" data-name="Group 2033" transform="translate(3.462 16.394)">
          <path id="Path_8647" data-name="Path 8647" d="M605.595,108.691v32.168a4.585,4.585,0,0,0,9.171,0V108.691Z" transform="translate(-605.595 -108.691)" fill="#757575"/>
        </g>
      </g>
    </g>
    <path id="Path_8648" data-name="Path 8648" d="M536.661,100.9v65.7H638.973V100.9Zm1.692,56.531V102.6H637.28v54.838Z" transform="translate(-492.323 -34.178)" fill="#fff"/>
  </g>
  <path id="Path_8649" data-name="Path 8649" d="M581.5,135.784a1.74,1.74,0,1,0,1.664,1.814A1.768,1.768,0,0,0,581.5,135.784Z" transform="translate(-486.875 -29.761)" fill="#fff"/>
  <path id="Path_8650" data-name="Path 8650" d="M584.2,129.608a1.44,1.44,0,0,0-1.47,1.346,1.425,1.425,0,0,0,1.348,1.47,1.44,1.44,0,0,0,1.47-1.347A1.424,1.424,0,0,0,584.2,129.608Z" transform="translate(-486.49 -30.543)" fill="#fff"/>
  <path id="Path_8651" data-name="Path 8651" d="M581.408,120.437c-2.257,0-2.421,3.513-.153,3.513S583.676,120.437,581.408,120.437Z" transform="translate(-486.882 -31.705)" fill="#fff"/>
</svg>
