<svg xmlns="http://www.w3.org/2000/svg" xmlns:xlink="http://www.w3.org/1999/xlink" width="232.611" height="232.611" viewBox="0 0 232.611 232.611">
  <defs>
    <clipPath id="clip-path">
      <ellipse id="Ellipse_791" data-name="Ellipse 791" cx="96.528" cy="96.528" rx="96.528" ry="96.528" transform="translate(0 187.778) rotate(-76.572)" fill="none"/>
    </clipPath>
  </defs>
  <g id="Group_2586" data-name="Group 2586" transform="translate(0)">
    <path id="Path_9037" data-name="Path 9037" d="M96.528,0A96.528,96.528,0,1,1,0,96.528,96.528,96.528,0,0,1,96.528,0Z" transform="translate(0 187.778) rotate(-76.572)" fill="#757575"/>
    <g id="Group_1943" data-name="Group 1943" transform="translate(0 0)">
      <g id="Group_1942" data-name="Group 1942" transform="translate(0)" clip-path="url(#clip-path)">
        <g id="Group_1941" data-name="Group 1941" transform="translate(27.444 59.327)">
          <path id="Path_8563" data-name="Path 8563" d="M396.653,478.359s-14.113-18.3-17.622-24.292-.507-9.594,3.265-8.881c0,0-6.2-10.655-5.728-15.047.488-4.524,4.1-4.6,7.308-2.971,0,0-3.358-5.492-.724-9s9.214,1.143,9.214,1.143a4.966,4.966,0,0,1,4-5.082c6.185-1.592,17.479,14.323,23.393,23.219s11.673,27.367,11.673,27.367S416.088,479.118,396.653,478.359Z" transform="translate(-285.19 -375.433)" fill="#e7b694"/>
          <path id="Path_8564" data-name="Path 8564" d="M416.78,426.362c.682,2.01,1.077,3.277,1.077,3.277s-15.341,14.3-34.776,13.544c0,0-3.079,1.669-1.216,8.18s11.483,35.814,11.483,35.814,37.545,1.476,58.1-24.574c0,0-13.68-18.25-19.865-27.022s-14.8-9.218-14.8-9.218Z" transform="translate(-271.618 -340.256)" fill="#77beea"/>
          <path id="Path_8565" data-name="Path 8565" d="M396.408,478.359s14.11-18.3,17.622-24.292.5-9.594-3.269-8.881c0,0,6.2-10.655,5.732-15.047-.488-4.524-4.1-4.6-7.312-2.971,0,0,3.358-5.492.724-9s-9.214,1.143-9.214,1.143a4.961,4.961,0,0,0-4-5.082c-6.185-1.592-17.475,14.323-23.393,23.219s-11.673,27.367-11.673,27.367S376.969,479.118,396.408,478.359Z" transform="translate(-328.037 -375.433)" fill="#e7b694"/>
          <path id="Path_8566" data-name="Path 8566" d="M387.623,426.362c-.682,2.01-1.077,3.277-1.077,3.277s15.341,14.3,34.78,13.544c0,0,3.075,1.669,1.212,8.18s-11.48,35.814-11.48,35.814-37.549,1.476-58.1-24.574c0,0,13.68-18.25,19.869-27.022s14.8-9.218,14.8-9.218Z" transform="translate(-352.955 -340.256)" fill="#77beea"/>
          <path id="Path_8567" data-name="Path 8567" d="M431.676,436.883a10.313,10.313,0,0,0-13.5-9.954c0-.17.05-.329.05-.5a13.56,13.56,0,0,0-26.538-3.97,10.358,10.358,0,0,0-16.127,11.371l-.023,0a8.614,8.614,0,0,0-2.746,16.786,13.551,13.551,0,0,0,20.318,17.584,8.6,8.6,0,0,0,15.465-5.062A13.494,13.494,0,0,0,428.2,444.613,10.384,10.384,0,0,0,431.676,436.883Z" transform="translate(-312.882 -379.143)" fill="#e1f5ff"/>
          <path id="Path_8568" data-name="Path 8568" d="M380.107,404.13s-5.825,16.115-5.155,18.61a5.153,5.153,0,1,0,10.306,0S385.889,419.061,380.107,404.13Z" transform="translate(-289.911 -404.13)" fill="#e1f5ff"/>
          <path id="Path_8569" data-name="Path 8569" d="M393.468,453.772c-10.717.314-13.889-11.042-7.893-17.669s15.763-3.075,15.763-3.075c-5.05-6-3.633-14.532-1.952-19.915a13.638,13.638,0,0,0-7.7,8.521A10.358,10.358,0,0,0,375.563,433l-.023,0a8.614,8.614,0,0,0-2.746,16.786,13.575,13.575,0,0,0,11.383,21.007,13.245,13.245,0,0,0,6.553-1.77C384.641,459.373,393.468,453.772,393.468,453.772Z" transform="translate(-312.882 -378.321)" fill="#c9e8f4"/>
          <path id="Path_8570" data-name="Path 8570" d="M380.107,404.13s-5.825,16.115-5.155,18.61a5.155,5.155,0,0,0,5.155,5.155C376.156,421.946,380.107,404.13,380.107,404.13Z" transform="translate(-289.911 -404.13)" fill="#c9e8f4"/>
          <g id="Group_1938" data-name="Group 1938" transform="translate(94.773 39.385)">
            <path id="Path_8571" data-name="Path 8571" d="M377.82,418.671c.1.186.19.376.271.569l-.294-.7a7.309,7.309,0,0,1,.515,1.874l-.1-.775a7.6,7.6,0,0,1,.066,1.065,3.259,3.259,0,0,0,.852,2.057,3.207,3.207,0,0,0,2.053.848,2.938,2.938,0,0,0,2.057-.848,3.057,3.057,0,0,0,.848-2.057,10.449,10.449,0,0,0-1.247-4.969A3.277,3.277,0,0,0,381.1,414.4a2.223,2.223,0,0,0-1.158-.05,2.17,2.17,0,0,0-1.081.345,2.92,2.92,0,0,0-1.332,1.735l-.1.774a2.865,2.865,0,0,0,.4,1.464Z" transform="translate(-377.425 -414.299)" fill="#fff"/>
          </g>
          <g id="Group_1939" data-name="Group 1939" transform="translate(106.722 52.647)">
            <path id="Path_8572" data-name="Path 8572" d="M380.9,422.1a3.311,3.311,0,0,1,.418.7l-.294-.693a3.575,3.575,0,0,1,.24.875l-.1-.771a3.392,3.392,0,0,1,0,.864l.1-.771a3.67,3.67,0,0,1-.081.4,2.182,2.182,0,0,0-.05,1.158,2.132,2.132,0,0,0,.345,1.077,3.227,3.227,0,0,0,1.735,1.336l.771.1a2.906,2.906,0,0,0,1.468-.4,3.049,3.049,0,0,0,1.336-1.739c.031-.124.058-.252.077-.379a9.671,9.671,0,0,0,.132-1.112,2.6,2.6,0,0,0-.008-.387,11.283,11.283,0,0,0-.151-1.135,6.659,6.659,0,0,0-.511-1.39,3.377,3.377,0,0,0-.4-.686,2.2,2.2,0,0,0-.751-.813,2.623,2.623,0,0,0-2.146-.573,2.209,2.209,0,0,0-1.077.345l-.589.457a2.867,2.867,0,0,0-.748,1.282l-.1.771a2.918,2.918,0,0,0,.395,1.468Z" transform="translate(-380.51 -417.723)" fill="#fff"/>
          </g>
          <g id="Group_1940" data-name="Group 1940" transform="translate(108.687 66.55)">
            <path id="Path_8573" data-name="Path 8573" d="M383.824,427.122c3.737,0,3.745-5.809,0-5.809s-3.745,5.809,0,5.809Z" transform="translate(-381.018 -421.313)" fill="#fff"/>
          </g>
        </g>
      </g>
    </g>
  </g>
</svg>
